<?xml version="1.0" standalone="no"?>
<!DOCTYPE svg PUBLIC "-//W3C//DTD SVG 20010904//EN"
 "http://www.w3.org/TR/2001/REC-SVG-20010904/DTD/svg10.dtd">
<svg version="1.0" xmlns="http://www.w3.org/2000/svg"
 width="16.000000pt" height="16.000000pt" viewBox="0 0 16.000000 16.000000"
 preserveAspectRatio="xMidYMid meet">
<metadata>
Created by potrace 1.11, written by Peter Selinger 2001-2013
</metadata>
<g transform="translate(0.000000,16.000000) scale(0.002286,-0.002286)"
fill="#000000" stroke="none">
<path d="M310 5773 c-15 -3 -79 -60 -161 -142 -109 -109 -139 -144 -143 -172
-8 -40 -2 -74 17 -103 8 -11 391 -397 850 -856 l836 -836 -844 -844 c-606
-606 -848 -854 -856 -878 -23 -69 -7 -97 129 -235 70 -71 139 -135 154 -143
31 -16 76 -18 112 -5 33 13 2056 2037 2057 2059 0 9 2 25 4 35 11 56 -4 72
-1025 1092 -555 556 -1022 1015 -1037 1022 -29 12 -50 14 -93 6z"/>
<path d="M2747 1755 c-35 -14 -67 -45 -79 -75 -5 -14 -10 -98 -9 -188 0 -187
10 -224 71 -254 33 -17 158 -18 2100 -18 1983 0 2066 1 2099 18 63 34 71 64
71 258 0 162 -1 173 -23 205 -46 68 127 63 -2144 63 -1370 1 -2070 -2 -2086
-9z"/>
</g>
</svg>
